<?xml version="1.0" encoding="UTF-8"?>
<svg width="22px" height="22px" viewBox="0 0 22 22" version="1.1" xmlns="http://www.w3.org/2000/svg" xmlns:xlink="http://www.w3.org/1999/xlink">
    <!-- Generator: Sketch 41 (35326) - http://www.bohemiancoding.com/sketch -->
    <title>add column</title>
    <desc>Created with Sketch.</desc>
    <defs>
        <linearGradient x1="50%" y1="0%" x2="50%" y2="100%" id="linearGradient-1">
            <stop stop-color="#FFFFFF" offset="0%"></stop>
            <stop stop-color="#F6F4F4" offset="100%"></stop>
        </linearGradient>
        <linearGradient x1="50%" y1="100%" x2="50%" y2="0%" id="linearGradient-2">
            <stop stop-color="#BDDEFF" offset="0%"></stop>
            <stop stop-color="#3C9BFD" offset="100%"></stop>
        </linearGradient>
    </defs>
    <g id="ic-final-draft-" stroke="none" stroke-width="1" fill="none" fill-rule="evenodd">
        <g id="WorkSpace" transform="translate(-867.000000, -76.000000)">
            <g id="work-space-svg" transform="translate(691.000000, 76.000000)">
                <g id="add-column" transform="translate(176.000000, 0.000000)">
                    <path d="M4,6.00247329 C4,5.44882258 4.44994876,5 5.00684547,5 L16.9931545,5 C17.5492199,5 18,5.45576096 18,6.00247329 L18,15.9975267 C18,16.5511774 17.5500512,17 16.9931545,17 L5.00684547,17 C4.45078007,17 4,16.544239 4,15.9975267 L4,6.00247329 Z" id="Mask" fill="url(#linearGradient-1)" transform="translate(11.000000, 11.000000) rotate(-360.000000) translate(-11.000000, -11.000000) "></path>
                    <path d="M4.5,6.00247329 L4.5,15.9975267 C4.5,16.2705397 4.72936451,16.5 5.00684547,16.5 L16.9931545,16.5 C17.2740441,16.5 17.5,16.2748969 17.5,15.9975267 L17.5,6.00247329 C17.5,5.72946029 17.2706355,5.5 16.9931545,5.5 L5.00684547,5.5 C4.72595588,5.5 4.5,5.72510306 4.5,6.00247329 Z M4,6.00247329 C4,5.44882258 4.44994876,5 5.00684547,5 L16.9931545,5 C17.5492199,5 18,5.45576096 18,6.00247329 L18,15.9975267 C18,16.5511774 17.5500512,17 16.9931545,17 L5.00684547,17 C4.45078007,17 4,16.544239 4,15.9975267 L4,6.00247329 Z" id="Mask" fill="#ACACAC"></path>
                    <path d="M13.5,13.5 L8.5,13.5 L8.5,17 L8,17 L8,13.5 L4,13.5 L4,13 L8,13 L8,11 L4,11 L4,10.5 L8,10.5 L8,7 L8.5,7 L8.5,10.5 L13.5,10.5 L13.5,7 L14,7 L14,10.5 L18,10.5 L18,11 L14,11 L14,13 L18,13 L18,13.5 L14,13.5 L14,17 L13.5,17 L13.5,13.5 Z M13.5,13 L8.5,13 L8.5,11 L13.5,11 L13.5,13 Z" id="Combined-Shape" fill="#ACACAC"></path>
                    <rect id="Rectangle-5" fill="url(#linearGradient-2)" x="4" y="5" width="14" height="3" rx="1"></rect>
                    <path d="M17.5,7.5 L17.5,5.99895656 C17.5,5.72163076 17.2759081,5.5 16.9931545,5.5 L5.00684547,5.5 C4.72556496,5.5 4.5,5.72392531 4.5,5.99895656 L4.5,7.5 L17.5,7.5 Z M4,5.99895656 C4,5.44724809 4.44994876,5 5.00684547,5 L16.9931545,5 C17.5492199,5 18,5.44266033 18,5.99895656 L18,8 L4,8 L4,5.99895656 Z" id="Rectangle-5" fill="#1C69D9"></path>
                    <ellipse id="Oval-26" fill="url(#linearGradient-1)" cx="14.5" cy="14.5" rx="5.5" ry="5.5"></ellipse>
                    <path d="M14.5,19.5 C17.2614237,19.5 19.5,17.2614237 19.5,14.5 C19.5,11.7385763 17.2614237,9.5 14.5,9.5 C11.7385763,9.5 9.5,11.7385763 9.5,14.5 C9.5,17.2614237 11.7385763,19.5 14.5,19.5 Z M14.5,20 C11.4624339,20 9,17.5375661 9,14.5 C9,11.4624339 11.4624339,9 14.5,9 C17.5375661,9 20,11.4624339 20,14.5 C20,17.5375661 17.5375661,20 14.5,20 Z" id="Oval-26" fill="#ACACAC"></path>
                    <path d="M14,14 L11.5034227,14 C11.2329025,14 11,14.2238576 11,14.5 C11,14.7680664 11.22539,15 11.5034227,15 L14,15 L14,17.4965773 C14,17.7670975 14.2238576,18 14.5,18 C14.7680664,18 15,17.77461 15,17.4965773 L15,15 L17.4965773,15 C17.7670975,15 18,14.7761424 18,14.5 C18,14.2319336 17.77461,14 17.4965773,14 L15,14 L15,11.5034227 C15,11.2329025 14.7761424,11 14.5,11 C14.2319336,11 14,11.22539 14,11.5034227 L14,14 Z" id="Combined-Shape" fill="#1C69D9"></path>
                </g>
            </g>
        </g>
    </g>
</svg>