<svg xmlns="http://www.w3.org/2000/svg" xmlns:xlink="http://www.w3.org/1999/xlink" width="22" height="22" version="1.1" viewBox="0 0 22 22"><title>ic comments</title><desc>Created with Sketch.</desc><defs><linearGradient id="linearGradient-1" x1="50%" x2="50%" y1="2.868%" y2="100%"><stop offset="0%" stop-color="#BDDEFF"/><stop offset="100%" stop-color="#3C9BFD"/></linearGradient></defs><g id="ic-final-draft-" fill="none" fill-rule="evenodd" stroke="none" stroke-width="1"><g id="WorkSpace" transform="translate(-709.000000, -78.000000)"><g id="work-space-svg" transform="translate(687.000000, 78.000000)"><g id="ic-comments" transform="translate(22.000000, 0.000000)"><path id="Combined-Shape" fill="url(#linearGradient-1)" d="M9.06870516,15.25 L4.6271316,17.0717745 L5.51410367,14.3662827 C4.00099032,13.3847666 3,11.6816369 3,9.75 C3,6.71243388 5.46493554,4.25 8.50629234,4.25 L13.4937077,4.25 C16.5347489,4.25 19,6.71861471 19,9.75 C19,12.7875661 16.5350645,15.25 13.4937077,15.25 L9.06870516,15.25 Z"/><path id="Combined-Shape" fill="#1C69DA" d="M8.8789635,14.7874007 L9.06870516,14.75 L13.4937077,14.75 C16.2589366,14.75 18.5,12.511409 18.5,9.75 C18.5,6.99266354 16.2565122,4.75 13.4937077,4.75 L8.50629234,4.75 C5.74106341,4.75 3.5,6.98859103 3.5,9.75 C3.5,11.4621062 4.37171013,13.0292608 5.78620647,13.9468067 L6.109135,14.1562818 L5.43976302,16.1980376 L8.8789635,14.7874007 Z M4.6271316,17.0717745 L5.51410367,14.3662827 C4.00099032,13.3847666 3,11.6816369 3,9.75 C3,6.71243388 5.46493554,4.25 8.50629234,4.25 L13.4937077,4.25 C16.5347489,4.25 19,6.71861471 19,9.75 C19,12.7875661 16.5350645,15.25 13.4937077,15.25 L9.06870516,15.25 L4.6271316,17.0717745 Z"/><path id="Combined-Shape" fill="#3894F5" d="M7,10.5 C7.55228475,10.5 8,10.0522847 8,9.5 C8,8.94771525 7.55228475,8.5 7,8.5 C6.44771525,8.5 6,8.94771525 6,9.5 C6,10.0522847 6.44771525,10.5 7,10.5 Z M11,10.5 C11.5522847,10.5 12,10.0522847 12,9.5 C12,8.94771525 11.5522847,8.5 11,8.5 C10.4477153,8.5 10,8.94771525 10,9.5 C10,10.0522847 10.4477153,10.5 11,10.5 Z M15,10.5 C15.5522847,10.5 16,10.0522847 16,9.5 C16,8.94771525 15.5522847,8.5 15,8.5 C14.4477153,8.5 14,8.94771525 14,9.5 C14,10.0522847 14.4477153,10.5 15,10.5 Z"/></g></g></g></g></svg>