<?xml version="1.0" encoding="UTF-8"?>
<svg width="22px" height="22px" viewBox="0 0 22 22" version="1.1" xmlns="http://www.w3.org/2000/svg" xmlns:xlink="http://www.w3.org/1999/xlink">
    <!-- Generator: Sketch 41 (35326) - http://www.bohemiancoding.com/sketch -->
    <title>ic drill up</title>
    <desc>Created with Sketch.</desc>
    <defs>
        <linearGradient x1="0%" y1="41.8580992%" x2="100%" y2="41.8580979%" id="linearGradient-1">
            <stop stop-color="#BDDEFF" offset="0%"></stop>
            <stop stop-color="#3C9BFD" offset="100%"></stop>
        </linearGradient>
    </defs>
    <g id="ic-final-draft-" stroke="none" stroke-width="1" fill="none" fill-rule="evenodd">
        <g id="WorkSpace" transform="translate(-977.000000, -100.000000)">
            <g id="work-space-svg" transform="translate(687.000000, 78.000000)">
                <g id="drill-up" transform="translate(301.000000, 33.000000) scale(-1, 1) rotate(-270.000000) translate(-301.000000, -33.000000) translate(290.000000, 22.000000)">
                    <path d="M11.0000764,15.3098685 L4.00007639,9.30986851 L11.0000764,3.30986851 L11.0000764,6.476179 C11.3946806,6.3942245 11.8034636,6.35116152 12.2222688,6.35116152 C15.5359059,6.35116152 18.2221395,9.04697543 18.2221395,12.3724304 C18.2221395,15.4544223 15.9148365,17.9955928 12.9391658,18.3511615 C14.1972865,17.4827191 15.0222084,16.0277986 15.0222084,14.3795201 L15.0222084,13.9781021 C15.0222084,12.4262231 13.7686327,11.1681766 12.2222688,11.1681766 C11.7840731,11.1681766 11.3693882,11.2691971 11.0000764,11.4492977 L11.0000764,15.3098685 Z" id="Combined-Shape" fill="url(#linearGradient-1)"></path>
                    <path d="M17.7221395,12.3724304 C17.7221395,9.32272011 15.2593642,6.85116152 12.2222688,6.85116152 C11.8422142,6.85116152 11.4674308,6.88978489 11.1017506,6.96573221 L10.5000764,7.09069264 L10.5000764,4.39697882 L4.76837176,9.30986851 L10.5000764,14.2227582 L10.5000764,11.1368442 L10.7809152,10.9998888 C11.2263916,10.7826454 11.7167106,10.6681766 12.2222688,10.6681766 C14.0451744,10.6681766 15.5222084,12.1504785 15.5222084,13.9781021 L15.5222084,14.3795201 C15.5222084,15.4581147 15.1994865,16.4824136 14.6248823,17.3411848 C16.4818629,16.419969 17.7221395,14.5307816 17.7221395,12.3724304 Z M10.8984021,5.98662579 L11.0000764,6.476179 L11.5000764,6.476179 L11.5000764,6.39433448 C11.7368428,6.3658289 11.977849,6.35116152 12.2222688,6.35116152 C15.5359059,6.35116152 18.2221395,9.04697543 18.2221395,12.3724304 C18.2221395,15.4544223 15.9148365,17.9955928 12.9391658,18.3511615 C14.1972865,17.4827191 15.0222084,16.0277986 15.0222084,14.3795201 L15.0222084,13.9781021 C15.0222084,12.4262231 13.7686327,11.1681766 12.2222688,11.1681766 C11.7840731,11.1681766 11.3693882,11.2691971 11.0000764,11.4492977 L11.0000764,15.3098685 L4.00007639,9.30986851 L11.0000764,3.30986851 L11.0000764,5.96636013 C10.9661226,5.97284462 10.9322304,5.97960007 10.8984021,5.98662579 Z" id="Combined-Shape" fill="#1C69DA"></path>
                </g>
            </g>
        </g>
    </g>
</svg>