<?xml version="1.0" encoding="UTF-8"?>
<svg width="22px" height="22px" viewBox="0 0 22 22" version="1.1" xmlns="http://www.w3.org/2000/svg" xmlns:xlink="http://www.w3.org/1999/xlink">
    <!-- Generator: Sketch 41 (35326) - http://www.bohemiancoding.com/sketch -->
    <title>ic hyperlink</title>
    <desc>Created with Sketch.</desc>
    <defs>
        <linearGradient x1="50%" y1="0%" x2="50%" y2="100%" id="linearGradient-1">
            <stop stop-color="#92E6FA" offset="0%"></stop>
            <stop stop-color="#66D3FB" offset="100%"></stop>
        </linearGradient>
    </defs>
    <g id="ic-final-draft-" stroke="none" stroke-width="1" fill="none" fill-rule="evenodd">
        <g id="WorkSpace" transform="translate(-775.000000, -78.000000)">
            <g id="work-space-svg" transform="translate(687.000000, 78.000000)">
                <g id="ic-hyperlink" transform="translate(88.000000, 0.000000)">
                    <path d="M8.62800909,14.2872265 L14.1203927,8.79484293 C14.3869393,8.52829631 14.3869393,8.09268296 14.1203927,7.82613634 C13.853846,7.55958972 13.4182327,7.55958972 13.1516861,7.82613634 L7.65930251,13.3185199 C7.39275588,13.5850665 7.39275588,14.0206799 7.65930251,14.2872265 L7.65930251,14.2872265 C7.924326,14.5537731 8.36146247,14.5537731 8.62800909,14.2872265 L8.62800909,14.2872265 L8.62800909,14.2872265 Z M10.678493,13.252542 C10.7827409,13.3981582 10.8009429,13.552048 10.8009429,13.6380939 C10.8009429,13.7406871 10.776122,13.9392546 10.6089944,14.1063822 L7.4815562,17.2338204 C7.31442855,17.400948 7.11751579,17.425769 7.01326785,17.425769 C6.91067463,17.425769 6.71210713,17.400948 6.54497948,17.2338204 L4.76614562,15.4549865 C4.59901797,15.2878589 4.57419703,15.0909461 4.57419703,14.9866982 C4.57419703,14.8824502 4.59901797,14.6855375 4.76614562,14.5184098 L7.89358377,11.3909717 C8.06071142,11.223844 8.25762418,11.1990231 8.36187212,11.1990231 C8.4346802,11.1990231 8.55382071,11.2122609 8.67461594,11.2767954 L9.62443049,10.3269808 C8.84670777,9.68494588 7.68508789,9.72796883 6.95700705,10.454395 L3.8295689,13.5818331 C3.05681037,14.3545916 3.05681037,15.61715 3.8295689,16.3899085 L5.60840277,18.1687424 C6.3811613,18.9415009 7.64371966,18.9415009 8.41647819,18.1687424 L11.5439163,15.0413042 C12.2901992,14.2950214 12.3150201,13.0887238 11.6183792,12.3110011 L10.678493,13.252542 L10.678493,13.252542 L10.678493,13.252542 Z M18.1480279,5.69869189 L16.3010932,3.85175712 C15.4987504,3.04941429 14.1878562,3.04941429 13.3855134,3.85175712 L10.1383443,7.09892615 C9.38410771,7.85316277 9.33943767,9.05925412 10.0060523,9.86846927 L10.9922295,8.882292 C10.9252244,8.75515417 10.9114798,8.6314525 10.9114798,8.5575751 C10.9114798,8.4510542 10.937251,8.24488474 11.110777,8.07135878 L14.357946,4.82418974 C14.531472,4.65066379 14.7359233,4.62489261 14.8441623,4.62489261 C14.9506832,4.62489261 15.1568527,4.65066379 15.3303786,4.82418974 L17.1773134,6.67112451 C17.3508394,6.84465048 17.3766105,7.04910186 17.3766105,7.15734083 C17.3766105,7.26386173 17.3508394,7.47003119 17.1773134,7.64355715 L13.9301444,10.8907262 C13.7566184,11.0642521 13.552167,11.0900233 13.443928,11.0900233 C13.354588,11.0900233 13.1948066,11.0711245 13.0436157,10.9628855 L12.0677469,11.9387543 C12.875244,12.6620655 14.1260054,12.6380124 14.902577,11.8614407 L18.149746,8.61427171 C18.9503708,7.81192888 18.9503708,6.49931663 18.1480279,5.69869189 L18.1480279,5.69869189 L18.1480279,5.69869189 Z" id="Shape" fill="url(#linearGradient-1)"></path>
                    <path d="M13.7668393,8.44128954 C13.8381237,8.37000506 13.8381237,8.2509742 13.7668393,8.17968973 C13.6955548,8.10840526 13.5765239,8.10840526 13.5052395,8.17968973 L8.0128559,13.6720733 C7.94157142,13.7433578 7.94157142,13.8623886 8.01386751,13.9346876 C8.08356782,14.0047885 8.2033403,14.0047885 8.27445569,13.9336731 L13.7668393,8.44128954 Z M8.62800909,14.2872265 C8.36146247,14.5537731 7.924326,14.5537731 7.65930251,14.2872265 C7.39275588,14.0206799 7.39275588,13.5850665 7.65930251,13.3185199 L13.1516861,7.82613634 C13.4182327,7.55958972 13.853846,7.55958972 14.1203927,7.82613634 C14.3869393,8.09268296 14.3869393,8.52829631 14.1203927,8.79484293 L8.62800909,14.2872265 Z M11.2700405,13.3676825 C11.2912844,13.458288 11.3009429,13.5490941 11.3009429,13.6380939 C11.3009429,13.9235866 11.2056049,14.2168785 10.9625477,14.4599356 L7.83510959,17.5873738 C7.5919278,17.8305556 7.29974622,17.925769 7.01326785,17.925769 C6.7277751,17.925769 6.43448323,17.8304309 6.19142609,17.5873738 L4.41259223,15.8085399 C4.16941043,15.5653581 4.07419703,15.2731765 4.07419703,14.9866982 C4.07419703,14.7002198 4.16941043,14.4080382 4.41259223,14.1648564 L7.54003038,11.0374183 C7.78321217,10.7942365 8.07539375,10.6990231 8.36187212,10.6990231 C8.41794397,10.6990231 8.47513729,10.702985 8.53285649,10.711448 L8.80283687,10.4414676 C8.29106677,10.2839922 7.71044772,10.4089702 7.31056044,10.8079483 L4.18312229,13.9353865 C3.6056259,14.5128829 3.6056259,15.4588588 4.18312229,16.0363551 L5.96195616,17.815189 C6.53945254,18.3926854 7.48542842,18.3926854 8.0629248,17.815189 L11.1903629,14.6877508 C11.6127515,14.2653623 11.7270689,13.6410304 11.5276618,13.1096077 L11.2700405,13.3676825 Z M10.678493,13.252542 L11.6183792,12.3110011 C12.3150201,13.0887238 12.2901992,14.2950214 11.5439163,15.0413042 L8.41647819,18.1687424 C7.64371966,18.9415009 6.3811613,18.9415009 5.60840277,18.1687424 L3.8295689,16.3899085 C3.05681037,15.61715 3.05681037,14.3545916 3.8295689,13.5818331 L6.95700705,10.454395 C7.68508789,9.72796883 8.84670777,9.68494588 9.62443049,10.3269808 L8.67461594,11.2767954 C8.55382071,11.2122609 8.4346802,11.1990231 8.36187212,11.1990231 C8.25762418,11.1990231 8.06071142,11.223844 7.89358377,11.3909717 L4.76614562,14.5184098 C4.59901797,14.6855375 4.57419703,14.8824502 4.57419703,14.9866982 C4.57419703,15.0909461 4.59901797,15.2878589 4.76614562,15.4549865 L6.54497948,17.2338204 C6.71210713,17.400948 6.91067463,17.425769 7.01326785,17.425769 C7.11751579,17.425769 7.31442855,17.400948 7.4815562,17.2338204 L10.6089944,14.1063822 C10.776122,13.9392546 10.8009429,13.7406871 10.8009429,13.6380939 C10.8009429,13.552048 10.7827409,13.3981582 10.678493,13.252542 Z M14.5490236,11.5078874 L17.7958139,8.26109746 C18.4017576,7.65385344 18.4013529,6.65782449 17.7948537,6.05262402 L15.9475398,4.20531051 C15.3404591,3.59822983 14.3461474,3.59822983 13.7390668,4.20531051 L10.4918977,7.45247954 C10.0645403,7.87983697 9.93622021,8.50503996 10.116472,9.05094278 L10.4257896,8.7416251 C10.4160442,8.67927372 10.4114798,8.61765803 10.4114798,8.5575751 C10.4114798,8.26581533 10.5088948,7.96613418 10.7572236,7.71780538 L14.0043926,4.47063634 C14.2528555,4.22217352 14.5513816,4.12489261 14.8441623,4.12489261 C15.1359221,4.12489261 15.4356032,4.22230757 15.683932,4.47063635 L17.5308668,6.31757112 C17.7793296,6.56603397 17.8766105,6.86456013 17.8766105,7.15734083 C17.8766105,7.4491006 17.7791956,7.74878175 17.5308668,7.99711054 L14.2836977,11.2442796 C14.0352349,11.4927424 13.7367087,11.5900233 13.443928,11.5900233 C13.3496994,11.5900233 13.253481,11.5794256 13.1575641,11.5560439 L12.8617832,11.8518248 C13.4263343,12.0768522 14.0965858,11.9603252 14.5490236,11.5078874 Z M18.1480279,5.69869189 C18.9503708,6.49931663 18.9503708,7.81192888 18.149746,8.61427171 L14.902577,11.8614407 C14.1260054,12.6380124 12.875244,12.6620655 12.0677469,11.9387543 L13.0436157,10.9628855 C13.1948066,11.0711245 13.354588,11.0900233 13.443928,11.0900233 C13.552167,11.0900233 13.7566184,11.0642521 13.9301444,10.8907262 L17.1773134,7.64355715 C17.3508394,7.47003119 17.3766105,7.26386173 17.3766105,7.15734083 C17.3766105,7.04910186 17.3508394,6.84465048 17.1773134,6.67112451 L15.3303786,4.82418974 C15.1568527,4.65066379 14.9506832,4.62489261 14.8441623,4.62489261 C14.7359233,4.62489261 14.531472,4.65066379 14.357946,4.82418974 L11.110777,8.07135878 C10.937251,8.24488474 10.9114798,8.4510542 10.9114798,8.5575751 C10.9114798,8.6314525 10.9252244,8.75515417 10.9922295,8.882292 L10.0060523,9.86846927 C9.33943767,9.05925412 9.38410771,7.85316277 10.1383443,7.09892615 L13.3855134,3.85175712 C14.1878562,3.04941429 15.4987504,3.04941429 16.3010932,3.85175712 L18.1480279,5.69869189 Z" id="Shape" fill="#084CAF"></path>
                </g>
            </g>
        </g>
    </g>
</svg>