<?xml version="1.0" encoding="UTF-8"?>
<svg width="22px" height="22px" viewBox="0 0 22 22" version="1.1" xmlns="http://www.w3.org/2000/svg" xmlns:xlink="http://www.w3.org/1999/xlink">
    <!-- Generator: Sketch 41 (35326) - http://www.bohemiancoding.com/sketch -->
    <title>ic central topic</title>
    <desc>Created with Sketch.</desc>
    <defs>
        <linearGradient x1="50%" y1="0%" x2="50%" y2="98.4554369%" id="linearGradient-1">
            <stop stop-color="#FF9B99" offset="0%"></stop>
            <stop stop-color="#E66E6B" offset="100%"></stop>
        </linearGradient>
    </defs>
    <g id="ic-final-draft-" stroke="none" stroke-width="1" fill="none" fill-rule="evenodd">
        <g id="WorkSpace" transform="translate(-687.000000, -100.000000)">
            <g id="work-space-svg" transform="translate(687.000000, 78.000000)">
                <g id="topic" transform="translate(0.000000, 22.000000)">
                    <g id="ic-central-topic">
                        <rect id="Rectangle-110" fill="url(#linearGradient-1)" x="4" y="4" width="14" height="14" rx="1"></rect>
                        <path d="M4.5,5.00684547 L4.5,16.9931545 C4.5,17.2735579 4.72657134,17.5 5.00684547,17.5 L16.9931545,17.5 C17.2735579,17.5 17.5,17.2734287 17.5,16.9931545 L17.5,5.00684547 C17.5,4.72644212 17.2734287,4.5 16.9931545,4.5 L5.00684547,4.5 C4.72644212,4.5 4.5,4.72657134 4.5,5.00684547 Z M4,5.00684547 C4,4.45078007 4.44994876,4 5.00684547,4 L16.9931545,4 C17.5492199,4 18,4.44994876 18,5.00684547 L18,16.9931545 C18,17.5492199 17.5500512,18 16.9931545,18 L5.00684547,18 C4.45078007,18 4,17.5500512 4,16.9931545 L4,5.00684547 Z" id="Rectangle-110" fill="#C6201C"></path>
                        <path d="M14.5539551,9.97851562 L12.5910645,10.1015625 C12.5637206,8.97265061 12.1242718,8.40820312 11.2727051,8.40820312 C10.2961377,8.40820312 9.80786133,9.27733506 9.80786133,11.015625 C9.80786133,12.0195363 9.9406725,12.7001935 10.2062988,13.0576172 C10.4719252,13.4150408 10.8430152,13.59375 11.3195801,13.59375 C12.0930214,13.59375 12.565673,13.0898488 12.7375488,12.0820312 L14.5539551,12.1933594 C14.436767,13.1503954 14.0803252,13.8779272 13.4846191,14.3759766 C12.888913,14.8740259 12.1594281,15.1230469 11.2961426,15.1230469 C10.2375435,15.1230469 9.37720058,14.7578162 8.71508789,14.0273438 C8.05297521,13.2968713 7.72192383,12.2871158 7.72192383,10.9980469 C7.72192383,9.79100959 8.04223312,8.80273822 8.68286133,8.03320312 C9.32348953,7.26366803 10.1984808,6.87890625 11.3078613,6.87890625 C13.2297459,6.87890625 14.3117664,7.91209904 14.5539551,9.97851562 Z" id="C" fill="#FFFFFF"></path>
                    </g>
                </g>
            </g>
        </g>
    </g>
</svg>