<?xml version="1.0" encoding="UTF-8"?>
<svg width="22px" height="22px" viewBox="0 0 22 22" version="1.1" xmlns="http://www.w3.org/2000/svg" xmlns:xlink="http://www.w3.org/1999/xlink">
    <!-- Generator: Sketch 41 (35326) - http://www.bohemiancoding.com/sketch -->
    <title>ic summary</title>
    <desc>Created with Sketch.</desc>
    <defs>
        <linearGradient x1="50%" y1="0%" x2="50%" y2="100%" id="linearGradient-1">
            <stop stop-color="#FFFFFF" offset="0%"></stop>
            <stop stop-color="#F6F4F4" offset="100%"></stop>
        </linearGradient>
    </defs>
    <g id="ic-final-draft-" stroke="none" stroke-width="1" fill="none" fill-rule="evenodd">
        <g id="WorkSpace" transform="translate(-844.000000, -101.000000)">
            <g id="work-space-svg" transform="translate(687.000000, 78.000000)">
                <g id="summary" transform="translate(157.000000, 23.000000)">
                    <path d="M4,5.99895656 C4,5.44724809 4.4556644,5 4.99539757,5 L13.0046024,5 C13.5543453,5 14,5.44266033 14,5.99895656 L14,7.00104344 C14,7.55275191 13.5443356,8 13.0046024,8 L4.99539757,8 C4.44565467,8 4,7.55733967 4,7.00104344 L4,5.99895656 Z M4,10.0093689 C4,9.45190985 4.4556644,9 4.99539757,9 L13.0046024,9 C13.5543453,9 14,9.44335318 14,10.0093689 L14,11.9906311 C14,12.5480902 13.5443356,13 13.0046024,13 L4.99539757,13 C4.44565467,13 4,12.5566468 4,11.9906311 L4,10.0093689 Z M4,14.9989566 C4,14.4472481 4.4556644,14 4.99539757,14 L13.0046024,14 C13.5543453,14 14,14.4426603 14,14.9989566 L14,16.0010434 C14,16.5527519 13.5443356,17 13.0046024,17 L4.99539757,17 C4.44565467,17 4,16.5573397 4,16.0010434 L4,14.9989566 Z" id="Combined-Shape" fill="url(#linearGradient-1)"></path>
                    <path d="M4.5,5.99895656 L4.5,7.00104344 C4.5,7.27965665 4.72025704,7.5 4.99539757,7.5 L13.0046024,7.5 C13.2720249,7.5 13.5,7.27278804 13.5,7.00104344 L13.5,5.99895656 C13.5,5.72034335 13.279743,5.5 13.0046024,5.5 L4.99539757,5.5 C4.72797509,5.5 4.5,5.72721196 4.5,5.99895656 Z M4,5.99895656 C4,5.44724809 4.4556644,5 4.99539757,5 L13.0046024,5 C13.5543453,5 14,5.44266033 14,5.99895656 L14,7.00104344 C14,7.55275191 13.5443356,8 13.0046024,8 L4.99539757,8 C4.44565467,8 4,7.55733967 4,7.00104344 L4,5.99895656 Z M4.5,10.0093689 L4.5,11.9906311 C4.5,12.2784479 4.71977232,12.5 4.99539757,12.5 L13.0046024,12.5 C13.270862,12.5 13.5,12.2692486 13.5,11.9906311 L13.5,10.0093689 C13.5,9.72155207 13.2802277,9.5 13.0046024,9.5 L4.99539757,9.5 C4.72913805,9.5 4.5,9.73075138 4.5,10.0093689 Z M4,10.0093689 C4,9.45190985 4.4556644,9 4.99539757,9 L13.0046024,9 C13.5543453,9 14,9.44335318 14,10.0093689 L14,11.9906311 C14,12.5480902 13.5443356,13 13.0046024,13 L4.99539757,13 C4.44565467,13 4,12.5566468 4,11.9906311 L4,10.0093689 Z M4.5,14.9989566 L4.5,16.0010434 C4.5,16.2796567 4.72025704,16.5 4.99539757,16.5 L13.0046024,16.5 C13.2720249,16.5 13.5,16.272788 13.5,16.0010434 L13.5,14.9989566 C13.5,14.7203433 13.279743,14.5 13.0046024,14.5 L4.99539757,14.5 C4.72797509,14.5 4.5,14.727212 4.5,14.9989566 Z M4,14.9989566 C4,14.4472481 4.4556644,14 4.99539757,14 L13.0046024,14 C13.5543453,14 14,14.4426603 14,14.9989566 L14,16.0010434 C14,16.5527519 13.5443356,17 13.0046024,17 L4.99539757,17 C4.44565467,17 4,16.5573397 4,16.0010434 L4,14.9989566 Z" id="Combined-Shape" fill="#ACACAC"></path>
                    <path d="M15,4 L15,4.94432548 L15.7697595,4.94432548 C16.3745704,4.94432548 16.6769759,5.30406852 16.6769759,6.05353319 L16.6769759,9.17130621 C16.6769759,10.0706638 17.04811,10.6852248 17.8041237,11 C17.04811,11.3297645 16.6769759,11.9443255 16.6769759,12.8286938 L16.6769759,15.9614561 C16.6769759,16.6809422 16.3745704,17.0556745 15.7697595,17.0556745 L15,17.0556745 L15,18 L15.9484536,18 C16.4982818,18 16.9381443,17.8051392 17.2542955,17.4154176 C17.5429553,17.0556745 17.6941581,16.5610278 17.6941581,15.9314775 L17.6941581,12.8736617 C17.6941581,12.4239829 17.7766323,12.0942184 17.9553265,11.8843683 C18.1477663,11.6445396 18.4914089,11.509636 19,11.4946467 L19,10.5053533 C18.4914089,10.4753747 18.1477663,10.3554604 17.9553265,10.130621 C17.7766323,9.90578158 17.6941581,9.57601713 17.6941581,9.12633833 L17.6941581,6.08351178 C17.6941581,5.45396146 17.5429553,4.94432548 17.2542955,4.58458244 C16.9381443,4.19486081 16.4982818,4 15.9484536,4 L15,4 Z" id="}" fill="#0669CF"></path>
                </g>
            </g>
        </g>
    </g>
</svg>