<svg xmlns="http://www.w3.org/2000/svg" xmlns:xlink="http://www.w3.org/1999/xlink" width="22" height="22" version="1.1" viewBox="0 0 22 22"><title>ic Floating Topic</title><desc>Created with Sketch.</desc><defs><linearGradient id="linearGradient-1" x1="50%" x2="50%" y1="0%" y2="98.455%"><stop offset="0%" stop-color="#CBCBCB"/><stop offset="100%" stop-color="#9A9A9A"/></linearGradient></defs><g id="ic-final-draft-" fill="none" fill-rule="evenodd" stroke="none" stroke-width="1"><g id="WorkSpace" transform="translate(-878.000000, -101.000000)"><g id="work-space-svg" transform="translate(687.000000, 78.000000)"><g id="ic-central-topic-copy" transform="translate(191.000000, 23.000000)"><rect id="Rectangle-110" width="14" height="14" x="4" y="4" fill="url(#linearGradient-1)" rx="1"/><path id="Rectangle-110" fill="#656565" d="M4.5,5.00684547 L4.5,16.9931545 C4.5,17.2735579 4.72657134,17.5 5.00684547,17.5 L16.9931545,17.5 C17.2735579,17.5 17.5,17.2734287 17.5,16.9931545 L17.5,5.00684547 C17.5,4.72644212 17.2734287,4.5 16.9931545,4.5 L5.00684547,4.5 C4.72644212,4.5 4.5,4.72657134 4.5,5.00684547 Z M4,5.00684547 C4,4.45078007 4.44994876,4 5.00684547,4 L16.9931545,4 C17.5492199,4 18,4.44994876 18,5.00684547 L18,16.9931545 C18,17.5492199 17.5500512,18 16.9931545,18 L5.00684547,18 C4.45078007,18 4,17.5500512 4,16.9931545 L4,5.00684547 Z"/><polygon id="F" fill="#FFF" points="14.292 8.584 10.548 8.584 10.548 10.377 13.507 10.377 13.507 11.871 10.548 11.871 10.548 15 8.603 15 8.603 7.002 14.292 7.002"/></g></g></g></g></svg>