<svg xmlns="http://www.w3.org/2000/svg" xmlns:xlink="http://www.w3.org/1999/xlink" width="22" height="22" version="1.1" viewBox="0 0 22 22"><title>ic callout</title><desc>Created with Sketch.</desc><defs><linearGradient id="linearGradient-1" x1="50%" x2="50%" y1="0%" y2="100%"><stop offset="0%" stop-color="#FEEDBE"/><stop offset="100%" stop-color="#FCCE51"/></linearGradient></defs><g id="ic-final-draft-" fill="none" fill-rule="evenodd" stroke="none" stroke-width="1"><g id="WorkSpace" transform="translate(-867.000000, -98.000000)"><g id="work-space-svg" transform="translate(691.000000, 76.000000)"><g id="menu-icon" transform="translate(176.000000, 22.000000)"><g id="callout"><g id="Group-2" transform="translate(2.640000, 3.500000)"><path id="Combined-Shape" fill="url(#linearGradient-1)" d="M10.1536457,11.75 L2.9871316,14.5717745 L4.48134612,11.75 L1.86748397,11.75 C1.31106594,11.75 0.86,11.305163 0.86,10.7544225 L0.86,1.7455775 C0.86,1.19573523 1.30892021,0.75 1.86748397,0.75 L14.852516,0.75 C15.4089341,0.75 15.86,1.19483697 15.86,1.7455775 L15.86,10.7544225 C15.86,11.3042648 15.4110798,11.75 14.852516,11.75 L10.1536457,11.75 L10.1536457,11.75 Z"/><path id="Combined-Shape" fill="#F3BF36" d="M9.97046195,11.2847649 L10.1536457,11.25 L14.852516,11.25 C15.1353555,11.25 15.36,11.0276833 15.36,10.7544225 L15.36,1.7455775 C15.36,1.47269962 15.1344965,1.25 14.852516,1.25 L1.86748397,1.25 C1.58464454,1.25 1.36,1.47231675 1.36,1.7455775 L1.36,10.7544225 C1.36,11.0273004 1.58550351,11.25 1.86748397,11.25 L5.31188545,11.25 L4.06145054,13.6114048 L9.97046195,11.2847649 Z M4.48134612,12.25 L4.34048301,12.0160153 L4.48134612,11.75 L4.1803369,11.75 L4.03947379,11.5160153 L3.91557184,11.75 L1.86748397,11.75 C1.31106594,11.75 0.86,11.305163 0.86,10.7544225 L0.86,1.7455775 C0.86,1.19573523 1.30892021,0.75 1.86748397,0.75 L14.852516,0.75 C15.4089341,0.75 15.86,1.19483697 15.86,1.7455775 L15.86,10.7544225 C15.86,11.3042648 15.4110798,11.75 14.852516,11.75 L10.1536457,11.75 L2.9871316,14.5717745 L4.21658107,12.25 L4.48134612,12.25 Z"/><path id="Combined-Shape" fill="#F3BF36" d="M3.36,7.5 L13.36,7.5 L13.36,8.5 L3.36,8.5 L3.36,7.5 Z M3.36,3.5 L13.36,3.5 L13.36,4.5 L3.36,4.5 L3.36,3.5 Z"/></g></g></g></g></g></g></svg>