<?xml version="1.0" encoding="UTF-8"?>
<svg width="22px" height="22px" viewBox="0 0 22 22" version="1.1" xmlns="http://www.w3.org/2000/svg" xmlns:xlink="http://www.w3.org/1999/xlink">
    <!-- Generator: Sketch 41 (35326) - http://www.bohemiancoding.com/sketch -->
    <title>ic notes</title>
    <desc>Created with Sketch.</desc>
    <defs>
        <linearGradient x1="50%" y1="100%" x2="50%" y2="0%" id="linearGradient-1">
            <stop stop-color="#FFF1CA" offset="0%"></stop>
            <stop stop-color="#F8C22F" offset="100%"></stop>
        </linearGradient>
    </defs>
    <g id="ic-final-draft-" stroke="none" stroke-width="1" fill="none" fill-rule="evenodd">
        <g id="WorkSpace" transform="translate(-731.000000, -78.000000)">
            <g id="work-space-svg" transform="translate(687.000000, 78.000000)">
                <g id="ic-notes" transform="translate(44.000000, 0.000000)">
                    <path d="M5,4.50748397 C5,3.95106594 5.45576096,3.5 6.00247329,3.5 L15.9975267,3.5 C16.5511774,3.5 17,3.95458821 17,4.49304664 L17,13.4763821 L12,18.5 L6.00292933,18.5 C5.44902676,18.5 5,18.0510798 5,17.492516 L5,4.50748397 Z" id="Rectangle-49" fill="url(#linearGradient-1)" transform="translate(11.000000, 11.000000) scale(1, -1) rotate(-360.000000) translate(-11.000000, -11.000000) "></path>
                    <path d="M11.7922028,4 L6.00292933,4 C5.72477327,4 5.5,4.22546186 5.5,4.50748397 L5.5,17.492516 C5.5,17.7704191 5.72953124,18 6.00247329,18 L15.9975267,18 C16.2718597,18 16.5,17.7724352 16.5,17.5069534 L16.5,8.73003493 L11.7922028,4 Z M5,17.492516 L5,4.50748397 C5,3.94892021 5.44902676,3.5 6.00292933,3.5 L12,3.5 L17,8.52361793 L17,17.5069534 C17,18.0454118 16.5511774,18.5 15.9975267,18.5 L6.00247329,18.5 C5.45576096,18.5 5,18.0489341 5,17.492516 Z" id="Rectangle-49" fill="#F3BF36"></path>
                    <path d="M16.5,8.25 L12.9986959,8.25 C12.5855087,8.25 12.25,7.91430621 12.25,7.50130415 L12.25,4 L11.75,4 L11.75,7.50130415 C11.75,8.19038688 12.3093046,8.75 12.9986959,8.75 L16.5,8.75 L16.5,8.25 Z" id="Path-10" fill="#F3BF36"></path>
                    <path d="M7,8.5 L11,8.5 L11,9.5 L7,9.5 L7,8.5 Z M7,11.5 L15,11.5 L15,12.5 L7,12.5 L7,11.5 Z M7,14.5 L15,14.5 L15,15.5 L7,15.5 L7,14.5 Z" id="Combined-Shape" fill="#F0BB2D"></path>
                </g>
            </g>
        </g>
    </g>
</svg>