<svg xmlns="http://www.w3.org/2000/svg" xmlns:xlink="http://www.w3.org/1999/xlink" width="16" height="16" version="1.1" viewBox="0 0 16 16"><title>arr_ref</title><desc>Created with Sketch.</desc><defs><linearGradient id="linearGradient-1" x1="50%" x2="50%" y1="0%" y2="97.423%"><stop offset="0%" stop-color="#00B0FF"/><stop offset="100%" stop-color="#0097F4"/></linearGradient></defs><g id="最终稿2" fill="none" fill-rule="evenodd" stroke="none" stroke-width="1"><g id="arrows" fill="url(#linearGradient-1)" transform="translate(-24.000000, -24.000000)"><g id="arr_ref" transform="translate(24.649253, 25.104977)"><path id="Combined-Shape" d="M11.2880944,1.73339814 C10.1863353,0.903955324 8.81587628,0.412300017 7.33058498,0.412300017 C3.69309854,0.412300017 0.744333162,3.3610654 0.744333162,6.99855183 C0.744333162,10.6360383 3.69309854,13.5848036 7.33058498,13.5848036 C10.8678196,13.5848036 13.7537733,10.7963388 13.9101645,7.29769066 L11.3382371,6.93622984 C11.3385532,6.95696603 11.3387118,6.97774041 11.3387118,6.99855183 C11.3387118,9.21217915 9.54421229,11.0066786 7.33058498,11.0066786 C5.11695766,11.0066786 3.32245816,9.21217915 3.32245816,6.99855183 C3.32245816,4.78492452 5.11695766,2.99042502 7.33058498,2.99042502 C8.14723555,2.99042502 8.90684212,3.23465944 9.54034646,3.65407007 L9.54971658,3.65538695 L8.47988019,4.83822165 L14.2785791,5.58507421 L12.5609976,0.3260482 L11.2880944,1.73339814 Z"/></g></g></g></svg>