<svg xmlns="http://www.w3.org/2000/svg" xmlns:xlink="http://www.w3.org/1999/xlink" width="16" height="16" version="1.1" viewBox="0 0 16 16"><title>face_bor</title><desc>Created with Sketch.</desc><defs><linearGradient id="linearGradient-1" x1="50%" x2="50%" y1="0%" y2="100%"><stop offset="0%" stop-color="#FFD036"/><stop offset="100%" stop-color="#ECB70A"/></linearGradient><radialGradient id="radialGradient-2" cx="21.866%" cy="24.944%" r="75.056%" fx="21.866%" fy="24.944%"><stop offset="0%" stop-color="#FFF" stop-opacity=".5"/><stop offset="100%" stop-color="#68A6E9" stop-opacity=".5"/></radialGradient><path id="path-3" d="M7.85078639,11.2410564 C6.92268562,10.9309325 6.45863517,10.4657463 5.8399013,9.8454982 C5.22116742,9.2252501 4.13838314,9.2252501 3.51964926,9.2252501 C2.90091539,9.2252501 0.89003029,10.3106843 0.89003029,12.0163665 C0.89003029,13.7220488 1.97281457,15.117607 3.67433273,15.117607 C5.37585089,15.117607 6.61331864,14.4973589 8.16015333,12.1714286 C8.46952027,11.5511805 8.77888716,11.5511804 7.85078639,11.2410564 Z"/></defs><g id="最终稿2" fill="none" fill-rule="evenodd" stroke="none" stroke-width="1"><g id="faces" transform="translate(-85.000000, 0)"><g id="face_bor" transform="translate(84.260020, -0.767693)"><circle id="Oval-332" cx="8.719" cy="8.762" r="8" fill="#E39104"/><circle id="Oval-332-Copy" cx="8.738" cy="8.795" r="7.5" fill="url(#linearGradient-1)"/><rect id="Rectangle-300" width="3.438" height=".762" x="3.775" y="8.19" fill="#CA480B"/><rect id="Rectangle-300-Copy" width="3.438" height=".762" x="9.506" y="8.19" fill="#CA480B"/><g id="Path-1001"><use fill="#5EA0E6" xlink:href="#path-3"/><use fill="url(#radialGradient-2)" xlink:href="#path-3"/></g><polygon id="z" fill="#635D59" points="10.371 7.048 8.453 7.048 8.453 6.596 9.5 5.368 8.5 5.368 8.5 4.854 10.35 4.854 10.35 5.298 9.301 6.524 10.371 6.524"/><polygon id="z-copy-3" fill="#635D59" points="13.478 5 10.601 5 10.601 4.323 12.172 2.48 10.672 2.48 10.672 1.71 13.446 1.71 13.446 2.375 11.873 4.215 13.478 4.215"/></g></g></g></svg>