<svg xmlns="http://www.w3.org/2000/svg" xmlns:xlink="http://www.w3.org/1999/xlink" width="16" height="16" version="1.1" viewBox="0 0 16 16"><title>month_aug copy</title><desc>Created with Sketch.</desc><defs><rect id="path-1" width="16" height="16" x="0" y="0" rx="2"/><mask id="mask-2" width="16" height="16" x="0" y="0" fill="#fff" maskContentUnits="userSpaceOnUse" maskUnits="objectBoundingBox"><use xlink:href="#path-1"/></mask><mask id="mask-4" width="16" height="16" x="0" y="0" fill="#fff" maskContentUnits="userSpaceOnUse" maskUnits="objectBoundingBox"><use xlink:href="#path-1"/></mask><linearGradient id="linearGradient-5" x1="50%" x2="50%" y1="0%" y2="100%"><stop offset="0%" stop-color="#FFB300"/><stop offset="100%" stop-color="#FFAB00"/></linearGradient></defs><g id="最终稿2.0" fill="none" fill-rule="evenodd" stroke="none" stroke-width="1"><g id="month-copy" transform="translate(0.000000, -21.000000)"><g id="month_aug" transform="translate(0.000000, 21.000000)"><mask id="mask-3" fill="#fff"><use xlink:href="#path-1"/></mask><g id="Mask" fill="#FAFAFA" stroke="#CFCFCF" stroke-width=".8" mask="url(#mask-2)"><use mask="url(#mask-4)" xlink:href="#path-1"/></g><rect id="Rectangle-15" width="16" height="5" x="0" y="0" fill="url(#linearGradient-5)" mask="url(#mask-3)"/><path id="8" fill="#6C6C6C" d="M7.43734975,11.890826 C7.58188172,12.0444726 7.78174952,12.1212948 8.03695913,12.1212948 C8.29216874,12.1212948 8.49203653,12.0444726 8.6365685,11.890826 C8.78110047,11.7371794 8.85336538,11.5210357 8.85336538,11.2423885 C8.85336538,10.9533246 8.7797984,10.7339257 8.63266225,10.5841854 C8.4855261,10.4344451 8.28696038,10.359576 8.03695913,10.359576 C7.78695788,10.359576 7.58839215,10.4344451 7.441256,10.5841854 C7.29411985,10.7339257 7.22055288,10.9533246 7.22055288,11.2423885 C7.22055288,11.5210357 7.29281778,11.7371794 7.43734975,11.890826 L7.43734975,11.890826 Z M6.28109975,10.453326 C6.42563172,10.1955122 6.63721815,10.0015038 6.91586538,9.87129477 C6.64242651,9.68900219 6.46469391,9.49173854 6.38266225,9.27949789 C6.30063059,9.06725725 6.25961538,8.86869153 6.25961538,8.68379477 C6.25961538,8.27233438 6.41456174,7.92142643 6.72445913,7.63106039 C7.03435651,7.34069436 7.47185214,7.19551352 8.03695913,7.19551352 C8.60206612,7.19551352 9.03956174,7.34069436 9.34945913,7.63106039 C9.65935651,7.92142643 9.81430288,8.27233438 9.81430288,8.68379477 C9.81430288,8.86869153 9.77328766,9.06725725 9.691256,9.27949789 C9.60922434,9.49173854 9.43149174,9.67598149 9.15805288,9.83223227 C9.4367001,9.98848305 9.64633342,10.1955122 9.78695913,10.453326 C9.92758483,10.7111398 9.99789663,10.9988973 9.99789663,11.3166073 C9.99789663,11.7931722 9.8214661,12.1987671 9.46859975,12.5334041 C9.1157334,12.8680412 8.62289979,13.0353573 7.99008413,13.0353573 C7.35726846,13.0353573 6.87810659,12.8680412 6.55258413,12.5334041 C6.22706167,12.1987671 6.06430288,11.7931722 6.06430288,11.3166073 C6.06430288,10.9988973 6.13656778,10.7111398 6.28109975,10.453326 L6.28109975,10.453326 Z M7.5115685,9.31270102 C7.63787122,9.44291 7.81299967,9.50801352 8.03695913,9.50801352 C8.26352276,9.50801352 8.43865122,9.44291 8.56234975,9.31270102 C8.68604829,9.18249203 8.74789663,9.01452496 8.74789663,8.80879477 C8.74789663,8.58483531 8.68604829,8.40970686 8.56234975,8.28340414 C8.43865122,8.15710143 8.26352276,8.09395102 8.03695913,8.09395102 C7.81299967,8.09395102 7.63787122,8.15710143 7.5115685,8.28340414 C7.38526579,8.40970686 7.32211538,8.58483531 7.32211538,8.80879477 C7.32211538,9.01452496 7.38526579,9.18249203 7.5115685,9.31270102 L7.5115685,9.31270102 Z" mask="url(#mask-3)"/></g></g></g></svg>