<svg xmlns="http://www.w3.org/2000/svg" xmlns:xlink="http://www.w3.org/1999/xlink" width="16" height="16" version="1.1" viewBox="0 0 16 16"><title>month_jul copy</title><desc>Created with Sketch.</desc><defs><rect id="path-1" width="16" height="16" x="0" y="0" rx="2"/><mask id="mask-2" width="16" height="16" x="0" y="0" fill="#fff" maskContentUnits="userSpaceOnUse" maskUnits="objectBoundingBox"><use xlink:href="#path-1"/></mask><linearGradient id="linearGradient-3" x1="50%" x2="50%" y1="0%" y2="100%"><stop offset="0%" stop-color="#FFB300"/><stop offset="100%" stop-color="#FFAB00"/></linearGradient></defs><g id="最终稿2.0" fill="none" fill-rule="evenodd" stroke="none" stroke-width="1"><g id="month-copy" transform="translate(-126.000000, 0.000000)"><g id="month_jul" transform="translate(126.000000, 0.000000)"><use id="Mask" fill="#FAFAFA" stroke="#CFCFCF" stroke-width=".8" mask="url(#mask-2)" xlink:href="#path-1"/><rect id="Rectangle-15" width="16" height="5" x="0" y="0" fill="url(#linearGradient-3)" rx="2"/><path id="7" fill="#6C6C6C" d="M10.0721154,8.48926768 C9.90544788,8.653331 9.67367936,8.94564578 9.37680288,9.3662208 C9.07992639,9.78679582 8.83123096,10.2210363 8.63070913,10.6689552 C8.47185417,11.0205194 8.32862643,11.4502026 8.20102163,11.9580177 C8.07341682,12.4658327 8.00961538,12.8824952 8.00961538,13.2080177 L6.85336538,13.2080177 C6.88721971,12.1923876 7.22054971,11.1364086 7.85336538,10.0400489 C8.26222159,9.36035803 8.60466608,8.88640443 8.88070913,8.61817393 L6.05649038,8.61817393 L6.07211538,7.61817393 L10.0721154,7.61817393 L10.0721154,8.48926768 Z"/></g></g></g></svg>