<svg xmlns="http://www.w3.org/2000/svg" xmlns:xlink="http://www.w3.org/1999/xlink" width="16" height="16" version="1.1" viewBox="0 0 16 16"><title>month_jan copy</title><desc>Created with Sketch.</desc><defs><rect id="path-1" width="16" height="16" x="0" y="0" rx="2"/><mask id="mask-2" width="16" height="16" x="0" y="0" fill="#fff" maskContentUnits="userSpaceOnUse" maskUnits="objectBoundingBox"><use xlink:href="#path-1"/></mask><mask id="mask-4" width="16" height="16" x="0" y="0" fill="#fff" maskContentUnits="userSpaceOnUse" maskUnits="objectBoundingBox"><use xlink:href="#path-1"/></mask><linearGradient id="linearGradient-5" x1="50%" x2="50%" y1="0%" y2="97.423%"><stop offset="0%" stop-color="#00B0FF"/><stop offset="100%" stop-color="#0097F4"/></linearGradient></defs><g id="最终稿2.0" fill="none" fill-rule="evenodd" stroke="none" stroke-width="1"><g id="month-copy"><g id="month_jan"><mask id="mask-3" fill="#fff"><use xlink:href="#path-1"/></mask><g id="Mask" fill="#FAFAFA" stroke="#CFCFCF" stroke-width=".8" mask="url(#mask-2)"><use mask="url(#mask-4)" xlink:href="#path-1"/></g><rect id="Rectangle-15" width="16" height="5" x="0" y="0" fill="url(#linearGradient-5)" mask="url(#mask-3)"/><path id="1" fill="#6C6C6C" d="M6.40805288,9.30176768 L6.40805288,8.54395518 C6.75961714,8.5283301 7.00570842,8.50489283 7.14633413,8.47364268 C7.37029358,8.42416326 7.55258342,8.32520592 7.69320913,8.17676768 C7.78956378,8.07520467 7.86247971,7.93978936 7.91195913,7.77051768 C7.9406051,7.66895467 7.95492788,7.59343459 7.95492788,7.54395518 L8.88070913,7.54395518 L8.88070913,13.2080177 L7.74008413,13.2080177 L7.74008413,9.30176768 L6.40805288,9.30176768 Z" mask="url(#mask-3)"/></g></g></g></svg>