<svg xmlns="http://www.w3.org/2000/svg" xmlns:xlink="http://www.w3.org/1999/xlink" width="17" height="16" version="1.1" viewBox="0 0 17 16"><title>peo_gra</title><desc>Created with Sketch.</desc><defs><linearGradient id="linearGradient-1" x1="50%" x2="50%" y1="0%" y2="98.234%"><stop offset="0%" stop-color="#27AB9E"/><stop offset="100%" stop-color="#009688"/></linearGradient></defs><g id="最终稿2" fill="none" fill-rule="evenodd" stroke="none" stroke-width="1"><g id="people" fill="url(#linearGradient-1)" transform="translate(-106.000000, 0.000000)"><path id="peo_gra" d="M113.052729,9.60221863 L113.052729,8.62715938 C113.052729,8.62715938 111.221853,6.17180052 110.983068,4.94926167 C110.719559,3.60014057 110.417539,1.98781796 112.077941,0.752450025 C113.45916,-0.27520036 115.997731,-0.226133056 117.341417,0.752449997 C118.685103,1.73103305 118.601395,3.19698302 118.387853,4.75460021 C118.174311,6.31221739 116.44075,8.62715963 116.44075,8.62715963 L116.44075,9.60221863 C116.44075,9.60221863 121.621452,11.6026479 122.356324,12.8898295 C123.091197,14.1770111 122.623539,14.8592608 119.83968,15.5080588 C117.05582,16.1568568 111.884592,16.1710654 109.40268,15.5080593 C106.920769,14.8450533 106.227282,14.2745789 106.920769,12.8898291 C107.614256,11.5050792 113.052729,9.60221863 113.052729,9.60221863 Z"/></g></g></svg>