<svg xmlns="http://www.w3.org/2000/svg" xmlns:xlink="http://www.w3.org/1999/xlink" width="16" height="16" version="1.1" viewBox="0 0 16 16"><title>task pro_3/4d</title><desc>Created with Sketch.</desc><defs><linearGradient id="linearGradient-1" x1="50%" x2="50%" y1="0%" y2="100%"><stop offset="0%" stop-color="#00D156"/><stop offset="100%" stop-color="#00C050"/></linearGradient></defs><g id="最终稿2" fill="none" fill-rule="evenodd" stroke="none" stroke-width="1"><g id="task-progress-" fill="url(#linearGradient-1)" transform="translate(-128.000000, 0.000000)"><path id="task-pro_3/4d" d="M136,16 C140.418278,16 144,12.418278 144,8 C144,3.581722 140.418278,0 136,0 C131.581722,0 128,3.581722 128,8 C128,12.418278 131.581722,16 136,16 L136,16 L136,16 L136,16 L136,16 L136,16 L136,16 L136,16 L136,16 Z M129,8 C129,4.1340068 132.134007,1 136,1 L136,8 L129,8 Z"/></g></g></svg>