<svg xmlns="http://www.w3.org/2000/svg" xmlns:xlink="http://www.w3.org/1999/xlink" width="16" height="16" version="1.1" viewBox="0 0 16 16"><title>sym_音乐</title><desc>Created with Sketch.</desc><defs><linearGradient id="linearGradient-1" x1="50%" x2="50%" y1="1.401%" y2="100%"><stop offset="0%" stop-color="#EF5350"/><stop offset="100%" stop-color="#E53935"/></linearGradient><rect id="path-2" width="16" height="16" x="0" y="0" rx="2"/><path id="path-3" d="M5.68160608,7.99408478 C5.4213766,7.90238301 5.14453672,7.84304656 4.85108646,7.84304656 C3.47242389,7.84304656 2.3595276,8.9272852 2.3595276,10.2704465 C2.3595276,11.6136078 3.47242389,12.6978464 4.85108646,12.6978464 C6.13008667,12.6978464 7.17654139,11.7538576 7.31496133,10.5401576 L7.34264531,10.2704465 L7.34264531,4.60651332 L9.5573643,4.60651332 L9.5573643,2.9882467 L5.68160608,2.9882467 L5.68160608,7.99408478 Z M12.325763,7.99408478 C12.0655335,7.90238301 11.7886937,7.84304656 11.4952434,7.84304656 C10.1165808,7.84304656 9.00368455,8.9272852 9.00368455,10.2704465 C9.00368455,11.6136078 10.1165808,12.6978464 11.4952434,12.6978464 C12.7742436,12.6978464 13.8206983,11.7538576 13.9591183,10.5401576 L13.9868023,10.2704465 L13.9868023,4.60651332 L13.9868023,2.9882467 L9.5573643,2.9882467 L9.5573643,4.60651332 L12.325763,4.60651332 L12.325763,7.99408478 Z"/></defs><g id="最终稿2" fill="none" fill-rule="evenodd" stroke="none" stroke-width="1"><g id="symbols2" transform="translate(-24.000000, -19.000000)"><g id="sym_音乐" transform="translate(24.000000, 19.000000)"><g id="Rectangle-370-Copy-8"><use fill="#EE432F" xlink:href="#path-2"/><use fill="url(#linearGradient-1)" xlink:href="#path-2"/></g><g id="Combined-Shape"><use fill="#EE432F" xlink:href="#path-3"/><use fill="#FFF" xlink:href="#path-3"/></g></g></g></g></svg>