<svg xmlns="http://www.w3.org/2000/svg" xmlns:xlink="http://www.w3.org/1999/xlink" width="16" height="16" version="1.1" viewBox="0 0 16 16"><title>sym_赞</title><desc>Created with Sketch.</desc><defs><linearGradient id="linearGradient-1" x1="50%" x2="50%" y1="0%" y2="100%"><stop offset="0%" stop-color="#FF9800"/><stop offset="100%" stop-color="#F57C00"/></linearGradient><rect id="path-2" width="16" height="16" x="0" y="0" rx="2"/><path id="path-3" d="M7.57199349,9.55373802 L7.57199349,11.4546715 C7.5196804,12.3108225 7.76993489,13.0333303 8.30437667,13.0326343 C9.23470125,13.0312421 9.20854471,12.292725 9.20854471,12.292725 C9.37396717,9.67206782 11.8270267,8.85768035 11.8270267,8.85768035 L11.8270267,3.28921897 L11.5011303,3.2460634 C9.6586884,3.24606338 9.88487887,1.90407382 8.07295499,1.89710363 C5.66241257,1.88783064 3.89760652,1.89195613 3.1036487,3.73217695 C2.79862156,4.43916324 2.63689022,5.41715455 2.63689022,6.76950733 C2.63689022,8.75048746 3.55378306,9.55373802 4.36887747,9.55373802 L7.57199349,9.55373802 Z M12.4713202,3.34956421 L14.1923347,3.34956421 L14.1923347,8.67525301 L12.4713202,8.67525301 L12.4713202,3.34956421 Z M13.331766,7.70694596 C13.5354424,7.70694596 13.7005548,7.54437377 13.7005548,7.34383081 C13.7005548,7.14328786 13.5354424,6.98071567 13.331766,6.98071567 C13.1280896,6.98071567 12.9629772,7.14328786 12.9629772,7.34383081 C12.9629772,7.54437377 13.1280896,7.70694596 13.331766,7.70694596 Z"/></defs><g id="最终稿2" fill="none" fill-rule="evenodd" stroke="none" stroke-width="1"><g id="symbols2" transform="translate(-120.000000, -39.000000)"><g id="sym_赞" transform="translate(120.000000, 39.000000)"><g id="Rectangle-370-Copy-17"><use fill="#FFCC80" xlink:href="#path-2"/><use fill="url(#linearGradient-1)" xlink:href="#path-2"/></g><g id="Combined-Shape-Copy-8" transform="translate(8.414612, 7.464300) scale(-1, -1) translate(-8.414612, -7.464300)"><use fill="#FFCC80" xlink:href="#path-3"/><use fill="#FFF" xlink:href="#path-3"/></g></g></g></g></svg>