<svg xmlns="http://www.w3.org/2000/svg" xmlns:xlink="http://www.w3.org/1999/xlink" width="16" height="16" version="1.1" viewBox="0 0 16 16"><title>sym_奖牌</title><desc>Created with Sketch.</desc><defs><linearGradient id="linearGradient-1" x1="50%" x2="50%" y1="0%" y2="100%"><stop offset="0%" stop-color="#FDD835"/><stop offset="100%" stop-color="#FBC02D"/></linearGradient></defs><g id="最终稿2" fill="none" fill-rule="evenodd" stroke="none" stroke-width="1"><g id="symbols2" transform="translate(-120.000000, -19.000000)"><g id="sym_奖牌" transform="translate(120.000000, 19.000000)"><rect id="Rectangle-370-Copy-13" width="16" height="16" x="0" y="0" fill="url(#linearGradient-1)" rx="2"/><path id="Combined-Shape" fill="#FFF" d="M6.7366028,7.30207739 L3.54646124,1.74849461 L5.79646124,1.74849461 L8.04646124,5.66542464 L10.2964612,1.74849461 L12.5464612,1.74849461 L9.35631969,7.30207739 C10.8659179,7.82637609 11.9464612,9.23125564 11.9464612,10.8820088 C11.9464612,12.9804379 10.2003718,14.6815507 8.04646124,14.6815507 C5.89255072,14.6815507 4.14646124,12.9804379 4.14646124,10.8820088 C4.14646124,9.23125564 5.22700462,7.82637609 6.7366028,7.30207739 Z M8.60446124,8.98808332 L7.95346124,8.98808332 L6.98746124,9.46887151 L7.15546124,10.0110369 L7.83796124,9.66323269 L7.84846124,9.66323269 L7.84846124,12.8548479 L8.60446124,12.8548479 L8.60446124,8.98808332 Z"/></g></g></g></svg>