<svg xmlns="http://www.w3.org/2000/svg" xmlns:xlink="http://www.w3.org/1999/xlink" width="16" height="16" version="1.1" viewBox="0 0 16 16"><title>sym_锻炼</title><desc>Created with Sketch.</desc><defs><linearGradient id="linearGradient-1" x1="50%" x2="50%" y1="0%" y2="100%"><stop offset="0%" stop-color="#00CA53"/><stop offset="100%" stop-color="#00C050"/></linearGradient></defs><g id="最终稿2" fill="none" fill-rule="evenodd" stroke="none" stroke-width="1"><g id="symbols2" transform="translate(-48.000000, -39.000000)"><g id="sym_锻炼" transform="translate(48.000000, 39.000000)"><rect id="Rectangle-370-Copy-14" width="16" height="16" x="0" y="0" fill="url(#linearGradient-1)" rx="2"/><polygon id="Shape-Copy-2" fill="#FFF" points="13.586 9.874 14.515 8.945 13.586 8.015 11.265 10.336 5.695 4.765 8.015 2.445 7.086 1.515 6.156 2.445 5.227 1.515 3.836 2.906 2.906 1.977 1.977 2.906 2.906 3.836 1.515 5.227 2.445 6.156 1.515 7.086 2.445 8.015 4.765 5.695 10.336 11.265 8.015 13.586 8.945 14.515 9.874 13.586 10.804 14.515 12.195 13.124 13.124 14.054 14.054 13.124 13.124 12.195 14.515 10.804"/></g></g></g></svg>