<svg xmlns="http://www.w3.org/2000/svg" xmlns:xlink="http://www.w3.org/1999/xlink" width="16" height="16" version="1.1" viewBox="0 0 16 16"><title>week_mon copy</title><desc>Created with Sketch.</desc><defs><linearGradient id="linearGradient-1" x1="50%" x2="50%" y1="49.371%" y2="50.754%"><stop offset="0%" stop-color="#00AFFE"/><stop offset="100%" stop-color="#0096F3"/></linearGradient></defs><g id="最终稿2.0" fill="none" fill-rule="evenodd" stroke="none" stroke-width="1"><g id="weeks-copy-2" transform="translate(-21.000000, 0.000000)"><g id="week_mon" transform="translate(21.000000, 0.000000)"><rect id="Rectangle-76-Copy-12" width="16" height="16" x="0" y="0" fill="url(#linearGradient-1)" rx="2"/><path id="M" fill="#FFF" d="M9.05341884,5.3764992 L10.7838876,5.3764992 L10.7838876,11.1343117 L9.66279384,11.1343117 L9.66279384,7.23978045 C9.66279384,7.12780073 9.66409591,6.97090125 9.66670009,6.76907733 C9.66930427,6.5672534 9.67060634,6.411656 9.67060634,6.30228045 L8.58076259,11.1343117 L7.41279384,11.1343117 L6.33076259,6.30228045 C6.33076259,6.411656 6.33206466,6.5672534 6.33466884,6.76907733 C6.33727302,6.97090125 6.33857509,7.12780073 6.33857509,7.23978045 L6.33857509,11.1343117 L5.21748134,11.1343117 L5.21748134,5.3764992 L6.96748134,5.3764992 L8.01435634,9.90384295 L9.05341884,5.3764992 Z"/></g></g></g></svg>