<?xml version="1.0" encoding="utf-8"?>
<!-- Generator: Adobe Illustrator 17.0.0, SVG Export Plug-In . SVG Version: 6.00 Build 0)  -->
<!DOCTYPE svg PUBLIC "-//W3C//DTD SVG 1.1//EN" "http://www.w3.org/Graphics/SVG/1.1/DTD/svg11.dtd">
<svg version="1.1" id="Layer_1" xmlns="http://www.w3.org/2000/svg" xmlns:xlink="http://www.w3.org/1999/xlink" x="0px" y="0px"
	 width="400px" height="400px" viewBox="0 0 400 400" enable-background="new 0 0 400 400" xml:space="preserve">
<g id="Layer_2">
	<g>
		<g>
			<path fill="#010101" d="M288.946,145.464c-25.932-9.329-53.733-12.11-81.152-11.465c-13.534,0.318-27.043,1.685-40.403,3.846
				c-10.834,1.753-21.844,2.124-32.775,2.913c-19.361,1.398-41.412,3.651-57.012,16.469c-8.271,6.796-13.614,15.479-14.572,26.263
				c-1.014,11.422,3.743,22.805,9.501,32.383c12.348,20.542,32.555,34.504,54.84,42.477c25.004,8.945,52.91,8.564,79.084,7.295
				c46.565-2.259,107.079-14.401,125.126-64.059c6.642-18.275,4.285-37.449-10.336-50.977
				c-14.838-13.729-35.849-17.033-55.202-14.558c-1.215,0.155-2.552,1.421-0.515,1.161c26.292-3.363,59.299,7.256,65.978,36.116
				c5.718,24.71-11.181,50.42-29.975,64.657c-23.656,17.921-55.937,23.439-84.783,25.822c-28.13,2.324-58.479,2.773-85.571-6.134
				c-24.214-7.961-45.448-23.862-57.894-46.288c-5.655-10.189-8.976-22.083-6.624-33.696c2.447-12.081,12.171-21.027,22.744-26.402
				c20.84-10.594,46.169-8.836,68.812-11.14c12.727-1.295,25.26-3.622,38.056-4.449c14.845-0.959,29.764-0.675,44.563,0.81
				c15.575,1.563,31.002,4.823,45.74,10.125C287.26,146.88,289.874,145.798,288.946,145.464L288.946,145.464z"/>
		</g>
	</g>
</g>
</svg>
