<?xml version="1.0" encoding="utf-8"?>
<!-- Generator: Adobe Illustrator 17.0.0, SVG Export Plug-In . SVG Version: 6.00 Build 0)  -->
<!DOCTYPE svg PUBLIC "-//W3C//DTD SVG 1.1//EN" "http://www.w3.org/Graphics/SVG/1.1/DTD/svg11.dtd">
<svg version="1.1" id="Layer_1" xmlns="http://www.w3.org/2000/svg" xmlns:xlink="http://www.w3.org/1999/xlink" x="0px" y="0px"
	 width="400px" height="400px" viewBox="0 0 400 400" enable-background="new 0 0 400 400" xml:space="preserve">
<path fill="#FFFFFF" stroke="#000000" stroke-miterlimit="10" d="M300.823,145.919c2.342-4.322,3.641-9.058,3.641-14.028
	c0-20.24-21.44-36.649-47.887-36.649c-4.902,0-9.631,0.566-14.085,1.614C236.82,82.713,220.615,72.5,201.496,72.5
	c-19.97,0-36.765,11.141-41.694,26.266c-5.084-1.629-10.577-2.519-16.31-2.519c-26.075,0-47.212,18.393-47.212,41.082
	c0,3.175,0.428,6.262,1.211,9.231C82.567,151.829,72,164.846,72,180.081c0,19.898,18.017,36.029,40.243,36.029
	c2.364,0,4.676-0.193,6.928-0.543c-0.261,1.573-0.408,3.176-0.408,4.806c0,19.952,20.131,36.127,44.964,36.127
	c15.491,0,29.151-6.295,37.237-15.874c7.448,4.606,16.745,7.347,26.836,7.347c23.002,0,41.903-14.215,44.077-32.399
	c2.337,0.346,4.734,0.535,7.182,0.535c23.715,0,42.941-16.878,42.941-37.698C322,164.567,313.493,152.473,300.823,145.919z"/>
</svg>
